
<svg viewBox="0 0 486.075 486.075">
  <defs/>
  <path fill="#030104" d="M400.645 275.633c-14.921-14.042-28.274-17.582-44.084-17.582 0 0-6.384.169-1.303 6.591 6.722 8.498 55.875 72.606 55.105 125.066-.891 60.735-61.031 57.291-61.031 57.291 25.298-48.092 12.55-93.586 8.616-109.521-7.45-29.424-22.118-57.897-44.175-85.35-27.198-34.234-54.632-50.475-82.277-48.728-11.832-20.409-22.327-36.799-31.522-50.204C250.053 108.488 217.451 86.88 189.054 0c-6.598 18.43-11.852 32.065-15.799 40.823-20.063-2.496-64.571-2.495-84.624 0C84.684 32.065 79.43 18.43 72.832 0 44.361 87.113 11.651 108.099 62.309 153.054c5.389 102.186 26.465 129.361 60.56 178.729 28.058 40.626 21.066 55.093 34.234 111.271-99.67 62.788 69.299 38.717 95.5 37.423 67.471-3.281 208.15 37.062 196.977-106.548-3.237-41.593-22.105-72.819-48.935-98.296zM94.3 95.123c-30.879-2.315-26.51-19.565-11.198-19.077 8.708.277 19.524 6.37 26.993 19.077H94.3zm73.091 0h-15.796c7.47-12.707 18.287-18.799 26.994-19.077 15.315-.488 19.682 16.762-11.198 19.077z"/>
</svg>